<svg width="44" height="45" viewBox="0 0 44 45" fill="none" xmlns="http://www.w3.org/2000/svg">
<g clip-path="url(#clip0_3849_1612)">
<path d="M31.1579 15.5309L30.6871 13.9994C30.089 12.2596 28.1773 11.3285 26.4172 11.9196C25.427 12.2521 24.6494 13.0207 24.3129 13.9994L23.8421 15.5309C23.446 16.8226 23.3628 18.1882 23.5994 19.5174C23.8152 20.6366 24.534 21.5981 25.553 22.1304L25.0257 33.7805C24.9552 34.4308 25.1686 35.0799 25.6124 35.565C26.5669 36.597 28.1872 36.6688 29.2313 35.7253C29.2878 35.6743 29.3419 35.6208 29.3935 35.565C29.8274 35.0937 30.0405 34.4636 29.9801 33.8291L29.4499 22.129C30.4675 21.5963 31.1852 20.6355 31.4006 19.5174C31.6372 18.1882 31.5541 16.8226 31.1579 15.5309ZM29.9559 19.2652C29.7972 20.0692 29.2175 20.7289 28.4343 20.9968C28.137 21.1073 27.9455 21.3943 27.9598 21.7079L28.5171 33.9436C28.5428 34.1836 28.4627 34.4229 28.2971 34.6003C27.8556 35.0324 27.1444 35.0324 26.7029 34.6003C26.5291 34.4086 26.4502 34.1505 26.4873 33.8958L27.0402 21.7079C27.0545 21.3943 26.863 21.1073 26.5657 20.9968C25.7825 20.7289 25.2028 20.0692 25.0441 19.2652C24.8479 18.1617 24.917 17.028 25.2457 15.9557L25.7165 14.4234C26.0808 13.4499 27.1746 12.9525 28.1596 13.3126C28.6804 13.503 29.0909 13.9088 29.2835 14.4234L29.7543 15.9557C30.0826 17.028 30.1517 18.1617 29.9559 19.2652Z" fill="#363853"/>
<path d="M19.8001 11.7458C19.3951 11.7458 19.0668 12.0704 19.0668 12.4707V18.694L17.0817 20.6561C16.9348 20.8007 16.8567 21.0001 16.8668 21.2048L17.5085 33.8892C17.5238 34.1627 17.4233 34.4303 17.2313 34.6278C16.8299 35.0281 16.1761 35.031 15.771 34.6341C15.7688 34.632 15.7667 34.6299 15.7646 34.6278C15.5725 34.4303 15.4721 34.1627 15.4874 33.8892L16.1335 21.2048C16.1437 21.0002 16.0659 20.8009 15.9193 20.6561L13.9335 18.694V12.4707C13.9335 12.0704 13.6051 11.7458 13.2001 11.7458C12.7951 11.7458 12.4668 12.0704 12.4668 12.4707V18.9941C12.4668 19.1863 12.5442 19.3706 12.6817 19.5065L14.6514 21.4541L14.0259 33.8189C13.9593 35.1695 15.0131 36.3178 16.3796 36.3836C17.7461 36.4494 18.9078 35.4078 18.9744 34.0572C18.9783 33.9778 18.9783 33.8983 18.9744 33.819L18.3489 21.4542L20.3186 19.5066C20.4561 19.3707 20.5335 19.1864 20.5335 18.9942V12.4708C20.5335 12.0704 20.2051 11.7458 19.8001 11.7458Z" fill="#363853"/>
<path d="M15.4003 11.7458C14.9953 11.7458 14.667 12.0704 14.667 12.4707V18.2693C14.667 18.6695 14.9953 18.9941 15.4003 18.9941C15.8053 18.9941 16.1337 18.6695 16.1337 18.2693V12.4707C16.1337 12.0704 15.8053 11.7458 15.4003 11.7458Z" fill="#363853"/>
<path d="M17.5995 11.7458C17.1946 11.7458 16.8662 12.0704 16.8662 12.4707V18.2693C16.8662 18.6695 17.1946 18.9941 17.5995 18.9941C18.0045 18.9941 18.3329 18.6695 18.3329 18.2693V12.4707C18.3329 12.0704 18.0045 11.7458 17.5995 11.7458Z" fill="#363853"/>
<path d="M22 0.873535C9.84977 0.873535 0 10.609 0 22.6182C0 34.6275 9.84977 44.3629 22 44.3629C34.1502 44.3629 44 34.6275 44 22.6182C43.9863 10.6146 34.1446 0.887126 22 0.873535ZM22 42.9133C10.6597 42.9133 1.46667 33.8269 1.46667 22.6182C1.46667 11.4096 10.6597 2.32318 22 2.32318C33.3403 2.32318 42.5333 11.4096 42.5333 22.6182C42.5204 33.8215 33.3349 42.9005 22 42.9133Z" fill="#363853"/>
<path d="M24.3804 36.2246C24.3411 35.826 23.9824 35.5344 23.5793 35.5732C23.5698 35.5741 23.5604 35.5752 23.551 35.5765L23.5539 35.5758C22.5214 35.6944 21.4785 35.6944 20.446 35.5758C20.0436 35.5291 19.6792 35.8138 19.632 36.2118C19.5848 36.6097 19.8727 36.9701 20.2752 37.0168C21.4202 37.149 22.5768 37.149 23.7218 37.0168C24.1249 36.978 24.4198 36.6232 24.3804 36.2246Z" fill="#363853"/>
<path d="M33.2205 13.2782C32.9603 12.9715 32.4977 12.9313 32.1875 13.1886C32.1864 13.1895 32.1854 13.1904 32.1843 13.1912C31.8748 13.4492 31.8354 13.9064 32.0963 14.2124C36.5179 19.4004 36.1796 27.0716 31.3183 31.8597C31.0314 32.1423 31.0305 32.6014 31.3164 32.885C31.6023 33.1686 32.0668 33.1694 32.3537 32.8868C37.7563 27.5672 38.1331 19.0431 33.2205 13.2782Z" fill="#363853"/>
<path d="M17.0857 10.4552C17.0852 10.4552 17.0848 10.4542 17.0843 10.4542C17.0836 10.4542 17.0829 10.4552 17.082 10.4552H17.0857Z" fill="#363853"/>
<path d="M25.459 8.52695C22.5931 7.84806 19.5873 8.03054 16.827 9.051C16.4478 9.19188 16.2561 9.60993 16.3987 9.98457C16.5061 10.267 16.7793 10.4539 17.0845 10.4542C17.1722 10.4537 17.2591 10.4379 17.341 10.4071C19.8268 9.48834 22.5336 9.32426 25.1144 9.93601C25.5081 10.0301 25.9043 9.79095 25.9995 9.40181C26.0946 9.01267 25.8527 8.621 25.459 8.52695Z" fill="#363853"/>
<path d="M12.649 31.8235C10.1768 29.3842 8.7913 26.0709 8.79973 22.6182C8.79249 19.8597 9.67652 17.171 11.3231 14.9438C11.5665 14.6238 11.5013 14.1694 11.1776 13.9289C10.8538 13.6883 10.3941 13.7527 10.1507 14.0728C10.1464 14.0785 10.1422 14.0842 10.1381 14.09C5.89821 19.8512 6.52209 27.8035 11.6099 32.8498C11.8966 33.1334 12.3617 33.1336 12.6486 32.8502C12.9355 32.5668 12.9357 32.1071 12.649 31.8235Z" fill="#363853"/>
</g>
<defs>
<clipPath id="clip0_3849_1612">
<rect width="44" height="43.4894" fill="white" transform="translate(0 0.873535)"/>
</clipPath>
</defs>
</svg>
